<?xml version="1.0" standalone="no"?>
<!DOCTYPE svg PUBLIC "-//W3C//DTD SVG 20010904//EN"
 "http://www.w3.org/TR/2001/REC-SVG-20010904/DTD/svg10.dtd">
<svg version="1.0" xmlns="http://www.w3.org/2000/svg"
 width="283.000000pt" height="94.000000pt" viewBox="0 0 283.000000 94.000000"
 preserveAspectRatio="xMidYMid meet">

<g transform="translate(0.000000,94.000000) scale(0.100000,-0.100000)"
fill="#000000" stroke="none">
<path d="M2801 922 c-7 -13 -21 -48 -31 -78 -44 -128 -153 -353 -208 -428 -83
-115 -115 -128 -95 -39 13 56 6 65 -41 52 -41 -12 -138 -11 -170 1 -17 6 -26
17 -26 30 0 12 -4 18 -10 15 -5 -3 -10 -14 -10 -24 0 -16 -48 -71 -63 -71 -4
0 -7 13 -7 29 l0 29 -119 -53 c-137 -62 -193 -80 -215 -72 -23 9 -20 20 13 39
68 38 77 109 11 87 -58 -21 -82 -104 -37 -134 30 -19 68 -9 206 56 57 27 107
49 112 49 4 0 9 -10 11 -22 5 -35 26 -32 64 7 32 35 37 36 63 25 32 -13 144
-17 178 -6 21 7 22 4 25 -50 2 -32 8 -59 14 -61 37 -12 134 119 211 287 51
110 64 125 43 50 -40 -148 -86 -511 -72 -565 7 -23 10 -8 15 70 13 192 96 614
144 726 8 20 13 45 11 55 -3 17 -5 17 -17 -4z m-941 -504 c0 -16 -51 -68 -67
-68 -7 0 -13 2 -13 5 0 14 31 64 42 68 23 9 38 7 38 -5z"/>
<path d="M454 894 c-22 -53 -70 -261 -99 -429 -14 -83 -25 -153 -25 -157 0
-15 23 -8 72 22 26 17 52 30 57 30 5 0 12 -14 16 -30 13 -59 83 -49 233 32
l92 49 0 -38 c0 -22 6 -48 14 -58 12 -17 16 -16 62 27 58 55 99 119 159 254
49 108 52 107 30 -8 -34 -181 -57 -514 -36 -546 4 -7 8 38 9 105 1 119 27 330
56 473 9 41 16 78 16 83 0 4 55 7 123 8 67 1 133 5 147 9 15 5 -31 8 -119 9
-110 1 -142 4 -139 14 3 6 13 37 23 67 9 30 21 59 26 65 5 5 9 17 9 27 0 39
-19 14 -59 -74 l-40 -93 -103 -1 c-57 -1 -107 -3 -113 -4 -22 -5 74 -19 137
-19 l67 -1 -35 -82 c-49 -115 -105 -207 -165 -270 l-50 -53 5 61 c3 34 3 64 0
66 -3 3 -58 -21 -122 -54 -64 -33 -136 -62 -159 -65 -40 -5 -42 -4 -48 23 -12
54 -12 55 -41 44 -15 -6 -40 -20 -56 -31 -16 -12 -32 -18 -36 -15 -13 14 62
392 100 496 10 30 22 65 25 78 9 36 -16 26 -33 -14z"/>
<path d="M1821 819 c-17 -44 -31 -83 -31 -86 0 -4 -39 -71 -86 -150 -86 -142
-87 -143 -123 -143 -22 0 -82 -20 -150 -50 -146 -65 -200 -82 -228 -75 -24 6
-32 25 -11 25 24 0 78 51 78 74 0 48 -57 37 -90 -16 -24 -39 -25 -57 -6 -83
22 -30 73 -22 186 29 56 25 103 46 105 46 2 0 -5 -19 -15 -42 -21 -46 -26
-113 -10 -138 16 -25 40 -2 113 108 64 96 69 101 90 91 21 -11 21 -11 5 7 -17
19 -15 24 36 108 56 90 71 111 62 86 -100 -301 -169 -600 -138 -600 6 0 9 7 6
15 -20 51 151 632 228 773 36 68 43 102 19 102 -5 0 -23 -36 -40 -81z m-561
-403 c0 -15 -55 -66 -71 -66 -14 0 -11 12 11 48 20 33 60 45 60 18z m279 -97
c-36 -51 -70 -94 -77 -97 -19 -6 -15 74 7 116 10 20 28 45 39 55 24 22 74 37
86 26 5 -4 -20 -49 -55 -100z"/>
<path d="M847 604 c-9 -9 4 -35 14 -28 5 3 9 12 9 20 0 14 -12 19 -23 8z"/>
<path d="M2494 595 c-9 -22 1 -29 15 -11 8 10 9 16 1 21 -5 3 -13 -1 -16 -10z"/>
<path d="M47 443 c-39 -86 -44 -156 -10 -161 16 -2 39 12 76 47 30 28 57 51
60 51 4 0 7 -16 7 -35 0 -93 95 -28 114 77 4 21 2 39 -4 43 -6 4 -10 -6 -10
-25 0 -52 -43 -120 -75 -120 -2 0 -5 17 -7 37 -2 20 -8 38 -15 40 -6 2 -37
-19 -67 -46 -31 -28 -64 -51 -72 -51 -24 0 -13 65 25 145 16 36 25 65 20 65
-6 0 -24 -30 -42 -67z"/>
</g>
</svg>
